<svg xmlns="http://www.w3.org/2000/svg" xmlns:xlink="http://www.w3.org/1999/xlink" viewBox="0 0 1232.264 511.551"><defs><style>.a,.c{fill:#fff;}.b,.f{fill:none;}.c{stroke:rgba(0,0,0,0);}.d{opacity:0.8;clip-path:url(#a);}.e{clip-path:url(#b);}.f{stroke:#d2dae2;stroke-width:5px;}.g{opacity:0.4;clip-path:url(#d);}</style><clipPath id="a"><path class="a" d="M-143.163-170.409h-91.53V-43.962H-335.715l158.652-302.049h-101.7L-445.212-24.978V41.466h210.519V128.25h91.53V41.466h66.105V-43.962h-66.105ZM159.225-354.825c-113.565,0-204.417,92.208-204.417,245.775S45.66,136.725,159.225,136.725c113.226,0,204.756-92.208,204.756-245.775S272.451-354.825,159.225-354.825Zm0,87.8c61.02,0,109.158,54.24,109.158,157.974S220.245,48.924,159.225,48.924c-60.681,0-109.158-54.24-109.158-157.974S98.544-267.024,159.225-267.024Zm541.722,96.615h-91.53V-43.962H508.4L667.047-346.011h-101.7L398.9-24.978V41.466H609.417V128.25h91.53V41.466h66.105V-43.962H700.947Z" transform="translate(445.212 354.825)"/></clipPath><clipPath id="b"><rect class="b" width="2330.795" height="864.518"/></clipPath><clipPath id="d"><path class="c" d="M-3533.563,511.551a200.558,200.558,0,0,1-41.575-4.3,188.407,188.407,0,0,1-38.616-12.66,186.592,186.592,0,0,1-34.847-20.651,195.21,195.21,0,0,1-30.269-28.277c34.722,30.02,78.052,45.889,125.308,45.889,56.486,0,107.923-23.191,144.838-65.3,18.935-21.6,33.687-47.6,43.847-77.287,10.664-31.157,16.071-65.874,16.071-103.188,0-37.086-5.341-71.612-15.875-102.62-10.038-29.548-24.622-55.474-43.347-77.057a202.638,202.638,0,0,1,32.724,36.237,231.69,231.69,0,0,1,24.972,45.739,278.136,278.136,0,0,1,15.929,54.67,345.413,345.413,0,0,1,5.6,63.031c0,37.315-5.407,72.032-16.07,103.188-10.16,29.684-24.912,55.687-43.847,77.287a195.921,195.921,0,0,1-30.294,28.027,187.411,187.411,0,0,1-34.783,20.467,188.8,188.8,0,0,1-38.454,12.545A199.986,199.986,0,0,1-3533.563,511.551Zm-302.388-8.474h-91.531v-20h71.53V396.292h66.1V330.863h20v85.428h-66.1v86.784Zm844.11,0h-91.53v-20h71.53V396.292h66.1V330.863h20v85.428h-66.1v86.784Zm-111.531-86.784H-3293.89v-20h190.519v20Zm-844.11,0H-4138v-20h190.519v20Zm337.691-31.159a106.038,106.038,0,0,1-21.686-22.257,139.428,139.428,0,0,1-16.706-30.733,196.014,196.014,0,0,1-10.741-39.076,280.342,280.342,0,0,1-3.8-47.291c0-25.164,2.867-48.193,8.522-68.446,5.365-19.215,13.205-35.849,23.3-49.441,9.72-13.086,21.388-23.176,34.679-29.991a92.547,92.547,0,0,1,42.656-10.1,93.052,93.052,0,0,1,42.044,9.713,99.132,99.132,0,0,1,34.277,28.861,91.623,91.623,0,0,0-26.529-13.907,95.259,95.259,0,0,0-29.792-4.667,92.548,92.548,0,0,0-42.656,10.1c-13.291,6.815-24.959,16.906-34.679,29.991-20.819,28.028-31.824,68.793-31.824,117.888,0,50.007,11.388,91.279,32.932,119.355Zm435.9-74.268h-30.5l148.146-282.049h30.505l-148.147,282.049Zm-844.109,0H-4048.5l148.147-282.049h30.505L-4018,310.863Zm1026.156,0h-20V204.416h20Zm-844.109,0h-20V204.416h20Z" transform="translate(4264.348 791.841)"/></clipPath></defs><g transform="translate(-106.348 -791.841)"><g class="d" transform="translate(106.348 791.841)"><g class="e" transform="translate(-913.922 -79.883)"><g transform="translate(398.5 -431.5)"><line class="f" y1="635" x2="468" transform="translate(-398.5 431.5)"/></g><g transform="translate(415.5 -431.5)"><line class="f" y1="635" x2="468" transform="translate(-398.5 431.5)"/></g><g transform="translate(432.5 -431.5)"><line class="f" y1="635" x2="468" transform="translate(-398.5 431.5)"/></g><g transform="translate(449.5 -431.5)"><line class="f" y1="635" x2="468" transform="translate(-398.5 431.5)"/></g><g transform="translate(466.5 -431.5)"><line class="f" y1="635" x2="468" transform="translate(-398.5 431.5)"/></g><g transform="translate(483.5 -431.5)"><line class="f" y1="635" x2="468" transform="translate(-398.5 431.5)"/></g><g transform="translate(500.5 -431.5)"><line class="f" y1="635" x2="468" transform="translate(-398.5 431.5)"/></g><g transform="translate(517.5 -431.5)"><line class="f" y1="635" x2="468" transform="translate(-398.5 431.5)"/></g><g transform="translate(534.5 -431.5)"><line class="f" y1="635" x2="468" transform="translate(-398.5 431.5)"/></g><g transform="translate(551.5 -431.5)"><line class="f" y1="635" x2="468" transform="translate(-398.5 431.5)"/></g><g transform="translate(568.5 -431.5)"><line class="f" y1="635" x2="468" transform="translate(-398.5 431.5)"/></g><g transform="translate(585.5 -431.5)"><line class="f" y1="635" x2="468" transform="translate(-398.5 431.5)"/></g><g transform="translate(602.5 -431.5)"><line class="f" y1="635" x2="468" transform="translate(-398.5 431.5)"/></g><g transform="translate(619.5 -431.5)"><line class="f" y1="635" x2="468" transform="translate(-398.5 431.5)"/></g><g transform="translate(636.5 -431.5)"><line class="f" y1="635" x2="468" transform="translate(-398.5 431.5)"/></g><g transform="translate(653.5 -431.5)"><line class="f" y1="635" x2="468" transform="translate(-398.5 431.5)"/></g><g transform="translate(670.5 -431.5)"><line class="f" y1="635" x2="468" transform="translate(-398.5 431.5)"/></g><g transform="translate(687.5 -431.5)"><line class="f" y1="635" x2="468" transform="translate(-398.5 431.5)"/></g><g transform="translate(704.5 -431.5)"><line class="f" y1="635" x2="468" transform="translate(-398.5 431.5)"/></g><g transform="translate(721.5 -431.5)"><line class="f" y1="635" x2="468" transform="translate(-398.5 431.5)"/></g><g transform="translate(738.5 -431.5)"><line class="f" y1="635" x2="468" transform="translate(-398.5 431.5)"/></g><g transform="translate(755.5 -431.5)"><line class="f" y1="635" x2="468" transform="translate(-398.5 431.5)"/></g><g transform="translate(772.5 -431.5)"><line class="f" y1="635" x2="468" transform="translate(-398.5 431.5)"/></g><g transform="translate(789.5 -431.5)"><line class="f" y1="635" x2="468" transform="translate(-398.5 431.5)"/></g><g transform="translate(806.5 -431.5)"><line class="f" y1="635" x2="468" transform="translate(-398.5 431.5)"/></g><g transform="translate(823.5 -431.5)"><line class="f" y1="635" x2="468" transform="translate(-398.5 431.5)"/></g><g transform="translate(840.5 -431.5)"><line class="f" y1="635" x2="468" transform="translate(-398.5 431.5)"/></g><g transform="translate(857.5 -431.5)"><line class="f" y1="635" x2="468" transform="translate(-398.5 431.5)"/></g><g transform="translate(874.5 -431.5)"><line class="f" y1="635" x2="468" transform="translate(-398.5 431.5)"/></g><g transform="translate(891.5 -431.5)"><line class="f" y1="635" x2="468" transform="translate(-398.5 431.5)"/></g><g transform="translate(908.5 -431.5)"><line class="f" y1="635" x2="468" transform="translate(-398.5 431.5)"/></g><g transform="translate(925.5 -431.5)"><line class="f" y1="635" x2="468" transform="translate(-398.5 431.5)"/></g><g transform="translate(942.5 -431.5)"><line class="f" y1="635" x2="468" transform="translate(-398.5 431.5)"/></g><g transform="translate(959.5 -431.5)"><line class="f" y1="635" x2="468" transform="translate(-398.5 431.5)"/></g><g transform="translate(976.5 -431.5)"><line class="f" y1="635" x2="468" transform="translate(-398.5 431.5)"/></g><g transform="translate(993.5 -431.5)"><line class="f" y1="635" x2="468" transform="translate(-398.5 431.5)"/></g><g transform="translate(1010.5 -431.5)"><line class="f" y1="635" x2="468" transform="translate(-398.5 431.5)"/></g><g transform="translate(1027.5 -431.5)"><line class="f" y1="635" x2="468" transform="translate(-398.5 431.5)"/></g><g transform="translate(1044.5 -431.5)"><line class="f" y1="635" x2="468" transform="translate(-398.5 431.5)"/></g><g transform="translate(1061.5 -431.5)"><line class="f" y1="635" x2="468" transform="translate(-398.5 431.5)"/></g><g transform="translate(1078.5 -431.5)"><line class="f" y1="635" x2="468" transform="translate(-398.5 431.5)"/></g><g transform="translate(1095.5 -431.5)"><line class="f" y1="635" x2="468" transform="translate(-398.5 431.5)"/></g><g transform="translate(1112.5 -431.5)"><line class="f" y1="635" x2="468" transform="translate(-398.5 431.5)"/></g><g transform="translate(1129.5 -431.5)"><line class="f" y1="635" x2="468" transform="translate(-398.5 431.5)"/></g><g transform="translate(1146.5 -431.5)"><line class="f" y1="635" x2="468" transform="translate(-398.5 431.5)"/></g><g transform="translate(1163.5 -431.5)"><line class="f" y1="635" x2="468" transform="translate(-398.5 431.5)"/></g><g transform="translate(1180.5 -431.5)"><line class="f" y1="635" x2="468" transform="translate(-398.5 431.5)"/></g><g transform="translate(1197.5 -431.5)"><line class="f" y1="635" x2="468" transform="translate(-398.5 431.5)"/></g><g transform="translate(1214.5 -431.5)"><line class="f" y1="635" x2="468" transform="translate(-398.5 431.5)"/></g><g transform="translate(1231.5 -431.5)"><line class="f" y1="635" x2="468" transform="translate(-398.5 431.5)"/></g><g transform="translate(1248.5 -431.5)"><line class="f" y1="635" x2="468" transform="translate(-398.5 431.5)"/></g><g transform="translate(1265.5 -431.5)"><line class="f" y1="635" x2="468" transform="translate(-398.5 431.5)"/></g><g transform="translate(1282.5 -431.5)"><line class="f" y1="635" x2="468" transform="translate(-398.5 431.5)"/></g><g transform="translate(1299.5 -431.5)"><line class="f" y1="635" x2="468" transform="translate(-398.5 431.5)"/></g><g transform="translate(1316.5 -431.5)"><line class="f" y1="635" x2="468" transform="translate(-398.5 431.5)"/></g><g transform="translate(1333.5 -431.5)"><line class="f" y1="635" x2="468" transform="translate(-398.5 431.5)"/></g><g transform="translate(1350.5 -431.5)"><line class="f" y1="635" x2="468" transform="translate(-398.5 431.5)"/></g><g transform="translate(1367.5 -431.5)"><line class="f" y1="635" x2="468" transform="translate(-398.5 431.5)"/></g><g transform="translate(1384.5 -431.5)"><line class="f" y1="635" x2="468" transform="translate(-398.5 431.5)"/></g><g transform="translate(1401.5 -431.5)"><line class="f" y1="635" x2="468" transform="translate(-398.5 431.5)"/></g><g transform="translate(1418.5 -431.5)"><line class="f" y1="635" x2="468" transform="translate(-398.5 431.5)"/></g><g transform="translate(1435.5 -431.5)"><line class="f" y1="635" x2="468" transform="translate(-398.5 431.5)"/></g><g transform="translate(1452.5 -431.5)"><line class="f" y1="635" x2="468" transform="translate(-398.5 431.5)"/></g><g transform="translate(1469.5 -431.5)"><line class="f" y1="635" x2="468" transform="translate(-398.5 431.5)"/></g><g transform="translate(1486.5 -431.5)"><line class="f" y1="635" x2="468" transform="translate(-398.5 431.5)"/></g><g transform="translate(1503.5 -431.5)"><line class="f" y1="635" x2="468" transform="translate(-398.5 431.5)"/></g><g transform="translate(1520.5 -431.5)"><line class="f" y1="635" x2="468" transform="translate(-398.5 431.5)"/></g><g transform="translate(1537.5 -431.5)"><line class="f" y1="635" x2="468" transform="translate(-398.5 431.5)"/></g><g transform="translate(1554.5 -431.5)"><line class="f" y1="635" x2="468" transform="translate(-398.5 431.5)"/></g><g transform="translate(1571.5 -431.5)"><line class="f" y1="635" x2="468" transform="translate(-398.5 431.5)"/></g><g transform="translate(1588.5 -431.5)"><line class="f" y1="635" x2="468" transform="translate(-398.5 431.5)"/></g><g transform="translate(1605.5 -431.5)"><line class="f" y1="635" x2="468" transform="translate(-398.5 431.5)"/></g><g transform="translate(1622.5 -431.5)"><line class="f" y1="635" x2="468" transform="translate(-398.5 431.5)"/></g><g transform="translate(1639.5 -431.5)"><line class="f" y1="635" x2="468" transform="translate(-398.5 431.5)"/></g><g transform="translate(1656.5 -431.5)"><line class="f" y1="635" x2="468" transform="translate(-398.5 431.5)"/></g><g transform="translate(1673.5 -431.5)"><line class="f" y1="635" x2="468" transform="translate(-398.5 431.5)"/></g><g transform="translate(1690.5 -431.5)"><line class="f" y1="635" x2="468" transform="translate(-398.5 431.5)"/></g><g transform="translate(1707.5 -431.5)"><line class="f" y1="635" x2="468" transform="translate(-398.5 431.5)"/></g><g transform="translate(1724.5 -431.5)"><line class="f" y1="635" x2="468" transform="translate(-398.5 431.5)"/></g><g transform="translate(1741.5 -431.5)"><line class="f" y1="635" x2="468" transform="translate(-398.5 431.5)"/></g><g transform="translate(1758.5 -431.5)"><line class="f" y1="635" x2="468" transform="translate(-398.5 431.5)"/></g><g transform="translate(1775.5 -431.5)"><line class="f" y1="635" x2="468" transform="translate(-398.5 431.5)"/></g><g transform="translate(1792.5 -431.5)"><line class="f" y1="635" x2="468" transform="translate(-398.5 431.5)"/></g><g transform="translate(1809.5 -431.5)"><line class="f" y1="635" x2="468" transform="translate(-398.5 431.5)"/></g><g transform="translate(1826.5 -431.5)"><line class="f" y1="635" x2="468" transform="translate(-398.5 431.5)"/></g><g transform="translate(1843.5 -431.5)"><line class="f" y1="635" x2="468" transform="translate(-398.5 431.5)"/></g><g transform="translate(1860.5 -431.5)"><line class="f" y1="635" x2="468" transform="translate(-398.5 431.5)"/></g><g transform="translate(1877.5 -431.5)"><line class="f" y1="635" x2="468" transform="translate(-398.5 431.5)"/></g><g transform="translate(1894.5 -431.5)"><line class="f" y1="635" x2="468" transform="translate(-398.5 431.5)"/></g><g transform="translate(1911.5 -431.5)"><line class="f" y1="635" x2="468" transform="translate(-398.5 431.5)"/></g><g transform="translate(1928.5 -431.5)"><line class="f" y1="635" x2="468" transform="translate(-398.5 431.5)"/></g><g transform="translate(1945.5 -431.5)"><line class="f" y1="635" x2="468" transform="translate(-398.5 431.5)"/></g><g transform="translate(1962.5 -431.5)"><line class="f" y1="635" x2="468" transform="translate(-398.5 431.5)"/></g><g transform="translate(1979.5 -431.5)"><line class="f" y1="635" x2="468" transform="translate(-398.5 431.5)"/></g><g transform="translate(1996.5 -431.5)"><line class="f" y1="635" x2="468" transform="translate(-398.5 431.5)"/></g><g transform="translate(2013.5 -431.5)"><line class="f" y1="635" x2="468" transform="translate(-398.5 431.5)"/></g><g transform="translate(2030.5 -431.5)"><line class="f" y1="635" x2="468" transform="translate(-398.5 431.5)"/></g><g transform="translate(2047.5 -431.5)"><line class="f" y1="635" x2="468" transform="translate(-398.5 431.5)"/></g><g transform="translate(2064.5 -431.5)"><line class="f" y1="635" x2="468" transform="translate(-398.5 431.5)"/></g><g transform="translate(2081.5 -431.5)"><line class="f" y1="635" x2="468" transform="translate(-398.5 431.5)"/></g><g transform="translate(2098.5 -431.5)"><line class="f" y1="635" x2="468" transform="translate(-398.5 431.5)"/></g><g transform="translate(2115.5 -431.5)"><line class="f" y1="635" x2="468" transform="translate(-398.5 431.5)"/></g><g transform="translate(2132.5 -431.5)"><line class="f" y1="635" x2="468" transform="translate(-398.5 431.5)"/></g><g transform="translate(2149.5 -431.5)"><line class="f" y1="635" x2="468" transform="translate(-398.5 431.5)"/></g><g transform="translate(2166.5 -431.5)"><line class="f" y1="635" x2="468" transform="translate(-398.5 431.5)"/></g><g transform="translate(2183.5 -431.5)"><line class="f" y1="635" x2="468" transform="translate(-398.5 431.5)"/></g><g transform="translate(2200.5 -431.5)"><line class="f" y1="635" x2="468" transform="translate(-398.5 431.5)"/></g><g transform="translate(2217.5 -431.5)"><line class="f" y1="635" x2="468" transform="translate(-398.5 431.5)"/></g><g transform="translate(2234.5 -431.5)"><line class="f" y1="635" x2="468" transform="translate(-398.5 431.5)"/></g><g transform="translate(2251.5 -431.5)"><line class="f" y1="635" x2="468" transform="translate(-398.5 431.5)"/></g><g transform="translate(2268.5 -431.5)"><line class="f" y1="635" x2="468" transform="translate(-398.5 431.5)"/></g><g transform="translate(2285.5 -431.5)"><line class="f" y1="635" x2="468" transform="translate(-398.5 431.5)"/></g><g transform="translate(2302.5 -431.5)"><line class="f" y1="635" x2="468" transform="translate(-398.5 431.5)"/></g><g transform="translate(2319.5 -431.5)"><line class="f" y1="635" x2="468" transform="translate(-398.5 431.5)"/></g><g transform="translate(2336.5 -431.5)"><line class="f" y1="635" x2="468" transform="translate(-398.5 431.5)"/></g><g transform="translate(2353.5 -431.5)"><line class="f" y1="635" x2="468" transform="translate(-398.5 431.5)"/></g><g transform="translate(2370.5 -431.5)"><line class="f" y1="635" x2="468" transform="translate(-398.5 431.5)"/></g><g transform="translate(2387.5 -431.5)"><line class="f" y1="635" x2="468" transform="translate(-398.5 431.5)"/></g><g transform="translate(2404.5 -431.5)"><line class="f" y1="635" x2="468" transform="translate(-398.5 431.5)"/></g><g transform="translate(2421.5 -431.5)"><line class="f" y1="635" x2="468" transform="translate(-398.5 431.5)"/></g><g transform="translate(2438.5 -431.5)"><line class="f" y1="635" x2="468" transform="translate(-398.5 431.5)"/></g><g transform="translate(2455.5 -431.5)"><line class="f" y1="635" x2="468" transform="translate(-398.5 431.5)"/></g><g transform="translate(2472.5 -431.5)"><line class="f" y1="635" x2="468" transform="translate(-398.5 431.5)"/></g><g transform="translate(2489.5 -431.5)"><line class="f" y1="635" x2="468" transform="translate(-398.5 431.5)"/></g><g transform="translate(2506.5 -431.5)"><line class="f" y1="635" x2="468" transform="translate(-398.5 431.5)"/></g><g transform="translate(2523.5 -431.5)"><line class="f" y1="635" x2="468" transform="translate(-398.5 431.5)"/></g><g transform="translate(2540.5 -431.5)"><line class="f" y1="635" x2="468" transform="translate(-398.5 431.5)"/></g><g transform="translate(2557.5 -431.5)"><line class="f" y1="635" x2="468" transform="translate(-398.5 431.5)"/></g><g transform="translate(2574.5 -431.5)"><line class="f" y1="635" x2="468" transform="translate(-398.5 431.5)"/></g><g transform="translate(2591.5 -431.5)"><line class="f" y1="635" x2="468" transform="translate(-398.5 431.5)"/></g><g transform="translate(2608.5 -431.5)"><line class="f" y1="635" x2="468" transform="translate(-398.5 431.5)"/></g><g transform="translate(2625.5 -431.5)"><line class="f" y1="635" x2="468" transform="translate(-398.5 431.5)"/></g><g transform="translate(2642.5 -431.5)"><line class="f" y1="635" x2="468" transform="translate(-398.5 431.5)"/></g><g transform="translate(2659.5 -431.5)"><line class="f" y1="635" x2="468" transform="translate(-398.5 431.5)"/></g><g transform="translate(2676.5 -431.5)"><line class="f" y1="635" x2="468" transform="translate(-398.5 431.5)"/></g><g transform="translate(2693.5 -431.5)"><line class="f" y1="635" x2="468" transform="translate(-398.5 431.5)"/></g><g transform="translate(2710.5 -431.5)"><line class="f" y1="635" x2="468" transform="translate(-398.5 431.5)"/></g><g transform="translate(2727.5 -431.5)"><line class="f" y1="635" x2="468" transform="translate(-398.5 431.5)"/></g><g transform="translate(398.5 223.5)"><line class="f" y1="635" x2="468" transform="translate(-398.5 431.5)"/></g><g transform="translate(415.5 223.5)"><line class="f" y1="635" x2="468" transform="translate(-398.5 431.5)"/></g><g transform="translate(432.5 223.5)"><line class="f" y1="635" x2="468" transform="translate(-398.5 431.5)"/></g><g transform="translate(449.5 223.5)"><line class="f" y1="635" x2="468" transform="translate(-398.5 431.5)"/></g><g transform="translate(466.5 223.5)"><line class="f" y1="635" x2="468" transform="translate(-398.5 431.5)"/></g><g transform="translate(483.5 223.5)"><line class="f" y1="635" x2="468" transform="translate(-398.5 431.5)"/></g><g transform="translate(500.5 223.5)"><line class="f" y1="635" x2="468" transform="translate(-398.5 431.5)"/></g><g transform="translate(517.5 223.5)"><line class="f" y1="635" x2="468" transform="translate(-398.5 431.5)"/></g><g transform="translate(534.5 223.5)"><line class="f" y1="635" x2="468" transform="translate(-398.5 431.5)"/></g><g transform="translate(551.5 223.5)"><line class="f" y1="635" x2="468" transform="translate(-398.5 431.5)"/></g><g transform="translate(568.5 223.5)"><line class="f" y1="635" x2="468" transform="translate(-398.5 431.5)"/></g><g transform="translate(585.5 223.5)"><line class="f" y1="635" x2="468" transform="translate(-398.5 431.5)"/></g><g transform="translate(602.5 223.5)"><line class="f" y1="635" x2="468" transform="translate(-398.5 431.5)"/></g><g transform="translate(619.5 223.5)"><line class="f" y1="635" x2="468" transform="translate(-398.5 431.5)"/></g><g transform="translate(636.5 223.5)"><line class="f" y1="635" x2="468" transform="translate(-398.5 431.5)"/></g><g transform="translate(653.5 223.5)"><line class="f" y1="635" x2="468" transform="translate(-398.5 431.5)"/></g><g transform="translate(670.5 223.5)"><line class="f" y1="635" x2="468" transform="translate(-398.5 431.5)"/></g><g transform="translate(687.5 223.5)"><line class="f" y1="635" x2="468" transform="translate(-398.5 431.5)"/></g><g transform="translate(704.5 223.5)"><line class="f" y1="635" x2="468" transform="translate(-398.5 431.5)"/></g><g transform="translate(721.5 223.5)"><line class="f" y1="635" x2="468" transform="translate(-398.5 431.5)"/></g><g transform="translate(738.5 223.5)"><line class="f" y1="635" x2="468" transform="translate(-398.5 431.5)"/></g><g transform="translate(755.5 223.5)"><line class="f" y1="635" x2="468" transform="translate(-398.5 431.5)"/></g><g transform="translate(772.5 223.5)"><line class="f" y1="635" x2="468" transform="translate(-398.5 431.5)"/></g><g transform="translate(789.5 223.5)"><line class="f" y1="635" x2="468" transform="translate(-398.5 431.5)"/></g><g transform="translate(806.5 223.5)"><line class="f" y1="635" x2="468" transform="translate(-398.5 431.5)"/></g><g transform="translate(823.5 223.5)"><line class="f" y1="635" x2="468" transform="translate(-398.5 431.5)"/></g><g transform="translate(840.5 223.5)"><line class="f" y1="635" x2="468" transform="translate(-398.5 431.5)"/></g><g transform="translate(857.5 223.5)"><line class="f" y1="635" x2="468" transform="translate(-398.5 431.5)"/></g><g transform="translate(874.5 223.5)"><line class="f" y1="635" x2="468" transform="translate(-398.5 431.5)"/></g><g transform="translate(891.5 223.5)"><line class="f" y1="635" x2="468" transform="translate(-398.5 431.5)"/></g><g transform="translate(908.5 223.5)"><line class="f" y1="635" x2="468" transform="translate(-398.5 431.5)"/></g><g transform="translate(925.5 223.5)"><line class="f" y1="635" x2="468" transform="translate(-398.5 431.5)"/></g><g transform="translate(942.5 223.5)"><line class="f" y1="635" x2="468" transform="translate(-398.5 431.5)"/></g><g transform="translate(959.5 223.5)"><line class="f" y1="635" x2="468" transform="translate(-398.5 431.5)"/></g><g transform="translate(976.5 223.5)"><line class="f" y1="635" x2="468" transform="translate(-398.5 431.5)"/></g><g transform="translate(993.5 223.5)"><line class="f" y1="635" x2="468" transform="translate(-398.5 431.5)"/></g><g transform="translate(1010.5 223.5)"><line class="f" y1="635" x2="468" transform="translate(-398.5 431.5)"/></g><g transform="translate(1027.5 223.5)"><line class="f" y1="635" x2="468" transform="translate(-398.5 431.5)"/></g><g transform="translate(1044.5 223.5)"><line class="f" y1="635" x2="468" transform="translate(-398.5 431.5)"/></g><g transform="translate(1061.5 223.5)"><line class="f" y1="635" x2="468" transform="translate(-398.5 431.5)"/></g><g transform="translate(1078.5 223.5)"><line class="f" y1="635" x2="468" transform="translate(-398.5 431.5)"/></g><g transform="translate(1095.5 223.5)"><line class="f" y1="635" x2="468" transform="translate(-398.5 431.5)"/></g><g transform="translate(1112.5 223.5)"><line class="f" y1="635" x2="468" transform="translate(-398.5 431.5)"/></g><g transform="translate(1129.5 223.5)"><line class="f" y1="635" x2="468" transform="translate(-398.5 431.5)"/></g><g transform="translate(1146.5 223.5)"><line class="f" y1="635" x2="468" transform="translate(-398.5 431.5)"/></g><g transform="translate(1163.5 223.5)"><line class="f" y1="635" x2="468" transform="translate(-398.5 431.5)"/></g><g transform="translate(1180.5 223.5)"><line class="f" y1="635" x2="468" transform="translate(-398.5 431.5)"/></g><g transform="translate(1197.5 223.5)"><line class="f" y1="635" x2="468" transform="translate(-398.5 431.5)"/></g><g transform="translate(1214.5 223.5)"><line class="f" y1="635" x2="468" transform="translate(-398.5 431.5)"/></g><g transform="translate(1231.5 223.5)"><line class="f" y1="635" x2="468" transform="translate(-398.5 431.5)"/></g><g transform="translate(1248.5 223.5)"><line class="f" y1="635" x2="468" transform="translate(-398.5 431.5)"/></g><g transform="translate(1265.5 223.5)"><line class="f" y1="635" x2="468" transform="translate(-398.5 431.5)"/></g><g transform="translate(1282.5 223.5)"><line class="f" y1="635" x2="468" transform="translate(-398.5 431.5)"/></g><g transform="translate(1299.5 223.5)"><line class="f" y1="635" x2="468" transform="translate(-398.5 431.5)"/></g><g transform="translate(1316.5 223.5)"><line class="f" y1="635" x2="468" transform="translate(-398.5 431.5)"/></g><g transform="translate(1333.5 223.5)"><line class="f" y1="635" x2="468" transform="translate(-398.5 431.5)"/></g><g transform="translate(1350.5 223.5)"><line class="f" y1="635" x2="468" transform="translate(-398.5 431.5)"/></g><g transform="translate(1367.5 223.5)"><line class="f" y1="635" x2="468" transform="translate(-398.5 431.5)"/></g><g transform="translate(1384.5 223.5)"><line class="f" y1="635" x2="468" transform="translate(-398.5 431.5)"/></g><g transform="translate(1401.5 223.5)"><line class="f" y1="635" x2="468" transform="translate(-398.5 431.5)"/></g><g transform="translate(1418.5 223.5)"><line class="f" y1="635" x2="468" transform="translate(-398.5 431.5)"/></g><g transform="translate(1435.5 223.5)"><line class="f" y1="635" x2="468" transform="translate(-398.5 431.5)"/></g><g transform="translate(1452.5 223.5)"><line class="f" y1="635" x2="468" transform="translate(-398.5 431.5)"/></g><g transform="translate(1469.5 223.5)"><line class="f" y1="635" x2="468" transform="translate(-398.5 431.5)"/></g><g transform="translate(1486.5 223.5)"><line class="f" y1="635" x2="468" transform="translate(-398.5 431.5)"/></g><g transform="translate(1503.5 223.5)"><line class="f" y1="635" x2="468" transform="translate(-398.5 431.5)"/></g><g transform="translate(1520.5 223.5)"><line class="f" y1="635" x2="468" transform="translate(-398.5 431.5)"/></g><g transform="translate(1537.5 223.5)"><line class="f" y1="635" x2="468" transform="translate(-398.5 431.5)"/></g><g transform="translate(1554.5 223.5)"><line class="f" y1="635" x2="468" transform="translate(-398.5 431.5)"/></g><g transform="translate(1571.5 223.5)"><line class="f" y1="635" x2="468" transform="translate(-398.5 431.5)"/></g><g transform="translate(1588.5 223.5)"><line class="f" y1="635" x2="468" transform="translate(-398.5 431.5)"/></g><g transform="translate(1605.5 223.5)"><line class="f" y1="635" x2="468" transform="translate(-398.5 431.5)"/></g><g transform="translate(1622.5 223.5)"><line class="f" y1="635" x2="468" transform="translate(-398.5 431.5)"/></g><g transform="translate(1639.5 223.5)"><line class="f" y1="635" x2="468" transform="translate(-398.5 431.5)"/></g><g transform="translate(1656.5 223.5)"><line class="f" y1="635" x2="468" transform="translate(-398.5 431.5)"/></g><g transform="translate(1673.5 223.5)"><line class="f" y1="635" x2="468" transform="translate(-398.5 431.5)"/></g><g transform="translate(1690.5 223.5)"><line class="f" y1="635" x2="468" transform="translate(-398.5 431.5)"/></g><g transform="translate(1707.5 223.5)"><line class="f" y1="635" x2="468" transform="translate(-398.5 431.5)"/></g><g transform="translate(1724.5 223.5)"><line class="f" y1="635" x2="468" transform="translate(-398.5 431.5)"/></g><g transform="translate(1741.5 223.5)"><line class="f" y1="635" x2="468" transform="translate(-398.5 431.5)"/></g><g transform="translate(1758.5 223.5)"><line class="f" y1="635" x2="468" transform="translate(-398.5 431.5)"/></g><g transform="translate(1775.5 223.5)"><line class="f" y1="635" x2="468" transform="translate(-398.5 431.5)"/></g><g transform="translate(1792.5 223.5)"><line class="f" y1="635" x2="468" transform="translate(-398.5 431.5)"/></g><g transform="translate(1809.5 223.5)"><line class="f" y1="635" x2="468" transform="translate(-398.5 431.5)"/></g><g transform="translate(1826.5 223.5)"><line class="f" y1="635" x2="468" transform="translate(-398.5 431.5)"/></g><g transform="translate(1843.5 223.5)"><line class="f" y1="635" x2="468" transform="translate(-398.5 431.5)"/></g><g transform="translate(1860.5 223.5)"><line class="f" y1="635" x2="468" transform="translate(-398.5 431.5)"/></g><g transform="translate(1877.5 223.5)"><line class="f" y1="635" x2="468" transform="translate(-398.5 431.5)"/></g><g transform="translate(1894.5 223.5)"><line class="f" y1="635" x2="468" transform="translate(-398.5 431.5)"/></g><g transform="translate(1911.5 223.5)"><line class="f" y1="635" x2="468" transform="translate(-398.5 431.5)"/></g><g transform="translate(1928.5 223.5)"><line class="f" y1="635" x2="468" transform="translate(-398.5 431.5)"/></g><g transform="translate(1945.5 223.5)"><line class="f" y1="635" x2="468" transform="translate(-398.5 431.5)"/></g><g transform="translate(1962.5 223.5)"><line class="f" y1="635" x2="468" transform="translate(-398.5 431.5)"/></g><g transform="translate(1979.5 223.5)"><line class="f" y1="635" x2="468" transform="translate(-398.5 431.5)"/></g><g transform="translate(1996.5 223.5)"><line class="f" y1="635" x2="468" transform="translate(-398.5 431.5)"/></g><g transform="translate(2013.5 223.5)"><line class="f" y1="635" x2="468" transform="translate(-398.5 431.5)"/></g><g transform="translate(2030.5 223.5)"><line class="f" y1="635" x2="468" transform="translate(-398.5 431.5)"/></g><g transform="translate(2047.5 223.5)"><line class="f" y1="635" x2="468" transform="translate(-398.5 431.5)"/></g><g transform="translate(2064.5 223.5)"><line class="f" y1="635" x2="468" transform="translate(-398.5 431.5)"/></g><g transform="translate(2081.5 223.5)"><line class="f" y1="635" x2="468" transform="translate(-398.5 431.5)"/></g><g transform="translate(2098.5 223.5)"><line class="f" y1="635" x2="468" transform="translate(-398.5 431.5)"/></g><g transform="translate(2115.5 223.5)"><line class="f" y1="635" x2="468" transform="translate(-398.5 431.5)"/></g><g transform="translate(2132.5 223.5)"><line class="f" y1="635" x2="468" transform="translate(-398.5 431.5)"/></g><g transform="translate(2149.5 223.5)"><line class="f" y1="635" x2="468" transform="translate(-398.5 431.5)"/></g><g transform="translate(2166.5 223.5)"><line class="f" y1="635" x2="468" transform="translate(-398.5 431.5)"/></g><g transform="translate(2183.5 223.5)"><line class="f" y1="635" x2="468" transform="translate(-398.5 431.5)"/></g><g transform="translate(2200.5 223.5)"><line class="f" y1="635" x2="468" transform="translate(-398.5 431.5)"/></g><g transform="translate(2217.5 223.5)"><line class="f" y1="635" x2="468" transform="translate(-398.5 431.5)"/></g><g transform="translate(2234.5 223.5)"><line class="f" y1="635" x2="468" transform="translate(-398.5 431.5)"/></g><g transform="translate(2251.5 223.5)"><line class="f" y1="635" x2="468" transform="translate(-398.5 431.5)"/></g><g transform="translate(2268.5 223.5)"><line class="f" y1="635" x2="468" transform="translate(-398.5 431.5)"/></g><g transform="translate(2285.5 223.5)"><line class="f" y1="635" x2="468" transform="translate(-398.5 431.5)"/></g><g transform="translate(2302.5 223.5)"><line class="f" y1="635" x2="468" transform="translate(-398.5 431.5)"/></g><g transform="translate(2319.5 223.5)"><line class="f" y1="635" x2="468" transform="translate(-398.5 431.5)"/></g><g transform="translate(2336.5 223.5)"><line class="f" y1="635" x2="468" transform="translate(-398.5 431.5)"/></g><g transform="translate(2353.5 223.5)"><line class="f" y1="635" x2="468" transform="translate(-398.5 431.5)"/></g><g transform="translate(2370.5 223.5)"><line class="f" y1="635" x2="468" transform="translate(-398.5 431.5)"/></g><g transform="translate(2387.5 223.5)"><line class="f" y1="635" x2="468" transform="translate(-398.5 431.5)"/></g><g transform="translate(2404.5 223.5)"><line class="f" y1="635" x2="468" transform="translate(-398.5 431.5)"/></g><g transform="translate(2421.5 223.5)"><line class="f" y1="635" x2="468" transform="translate(-398.5 431.5)"/></g><g transform="translate(2438.5 223.5)"><line class="f" y1="635" x2="468" transform="translate(-398.5 431.5)"/></g><g transform="translate(2455.5 223.5)"><line class="f" y1="635" x2="468" transform="translate(-398.5 431.5)"/></g><g transform="translate(2472.5 223.5)"><line class="f" y1="635" x2="468" transform="translate(-398.5 431.5)"/></g><g transform="translate(2489.5 223.5)"><line class="f" y1="635" x2="468" transform="translate(-398.5 431.5)"/></g><g transform="translate(2506.5 223.5)"><line class="f" y1="635" x2="468" transform="translate(-398.5 431.5)"/></g><g transform="translate(2523.5 223.5)"><line class="f" y1="635" x2="468" transform="translate(-398.5 431.5)"/></g><g transform="translate(2540.5 223.5)"><line class="f" y1="635" x2="468" transform="translate(-398.5 431.5)"/></g><g transform="translate(2557.5 223.5)"><line class="f" y1="635" x2="468" transform="translate(-398.5 431.5)"/></g><g transform="translate(2574.5 223.5)"><line class="f" y1="635" x2="468" transform="translate(-398.5 431.5)"/></g><g transform="translate(2591.5 223.5)"><line class="f" y1="635" x2="468" transform="translate(-398.5 431.5)"/></g><g transform="translate(2608.5 223.5)"><line class="f" y1="635" x2="468" transform="translate(-398.5 431.5)"/></g><g transform="translate(2625.5 223.5)"><line class="f" y1="635" x2="468" transform="translate(-398.5 431.5)"/></g><g transform="translate(2642.5 223.5)"><line class="f" y1="635" x2="468" transform="translate(-398.5 431.5)"/></g><g transform="translate(2659.5 223.5)"><line class="f" y1="635" x2="468" transform="translate(-398.5 431.5)"/></g><g transform="translate(2676.5 223.5)"><line class="f" y1="635" x2="468" transform="translate(-398.5 431.5)"/></g><g transform="translate(2693.5 223.5)"><line class="f" y1="635" x2="468" transform="translate(-398.5 431.5)"/></g><g transform="translate(2710.5 223.5)"><line class="f" y1="635" x2="468" transform="translate(-398.5 431.5)"/></g><g transform="translate(2727.5 223.5)"><line class="f" y1="635" x2="468" transform="translate(-398.5 431.5)"/></g></g></g><g class="d" transform="translate(106.348 791.841)"><path class="f" d="M-1467.347-791.841l-468,635Zm-17,0-468,635Zm-17,0-468,635Zm-17,0-468,635Zm-17,0-468,635Zm-17,0-468,635Zm-17,0-468,635Zm-17,0-468,635Zm-17,0-468,635Zm-17,0-468,635Zm-17,0-468,635Zm-17,0-468,635Zm-17,0-468,635Zm-17,0-468,635Zm-17,0-468,635Zm-17,0-468,635Zm-17,0-468,635Zm-17,0-468,635Zm-17,0-468,635Zm-17,0-468,635Zm-17,0-468,635Zm-17,0-468,635Zm-17,0-468,635Zm-17,0-468,635Zm-17,0-468,635Zm-17,0-468,635Zm-17,0-468,635Zm-17,0-468,635Zm-17,0-468,635Zm-17,0-468,635Zm-17,0-468,635Zm-17,0-468,635Zm-17,0-468,635Zm-17,0-468,635Zm-17,0-468,635Zm-17,0-468,635Zm-17,0-468,635Zm-17,0-468,635Zm-17,0-468,635Zm-17,0-468,635Zm-17,0-468,635Zm-17,0-468,635Zm-17,0-468,635Zm-17,0-468,635Zm-17,0-468,635Zm-17,0-468,635Zm-17,0-468,635Zm-17,0-468,635Zm-17,0-468,635Zm-17,0-468,635Zm-17,0-468,635Zm-17,0-468,635Zm-17,0-468,635Zm-17,0-468,635Zm-17,0-468,635Zm-17,0-468,635Zm-17,0-468,635Zm-17,0-468,635Zm-17,0-468,635Zm-17,0-468,635Zm-17,0-468,635Zm-17,0-468,635Zm-17,0-468,635Zm-17,0-468,635Zm-17,0-468,635Zm-17,0-468,635Zm-17,0-468,635Zm-17,0-468,635Zm-17,0-468,635Zm-17,0-468,635Zm-17,0-468,635Zm-17,0-468,635Zm-17,0-468,635Zm-17,0-468,635Zm-17,0-468,635Zm-17,0-468,635Zm-17,0-468,635Zm-17,0-468,635Zm-17,0-468,635Zm-17,0-468,635Zm-17,0-468,635Zm-17,0-468,635Zm-17,0-468,635Zm-17,0-468,635Zm-17,0-468,635Zm-17,0-468,635Zm-17,0-468,635Zm-17,0-468,635Zm-17,0-468,635Zm-17,0-468,635Zm-17,0-468,635Zm-17,0-468,635Zm-17,0-468,635Zm-17,0-468,635Zm-17,0-468,635Zm-17,0-468,635Zm-17,0-468,635Zm-17,0-468,635Zm-17,0-468,635Zm-17,0-468,635Zm-17,0-468,635Zm-17,0-468,635Zm-17,0-468,635Zm-17,0-468,635Zm-17,0-468,635Zm-17,0-468,635Zm-17,0-468,635Zm-17,0-468,635Zm-17,0-468,635Zm-17,0-468,635Zm-17,0-468,635Zm-17,0-468,635Zm-17,0-468,635Zm-17,0-468,635Zm-17,0-468,635Zm-17,0-468,635Zm-17,0-468,635Zm-17,0-468,635Zm-17,0-468,635Zm-17,0-468,635Zm-17,0-468,635Zm-17,0-468,635Zm-17,0-468,635Zm-17,0-468,635Zm-17,0-468,635Zm-17,0-468,635Zm-17,0-468,635Zm-17,0-468,635Zm-17,0-468,635Zm-17,0-468,635Zm-17,0-468,635Zm-17,0-468,635Zm-17,0-468,635Zm-17,0-468,635Zm-17,0-468,635Zm-17,0-468,635Zm-17,0-468,635Zm-17,0-468,635Z" transform="translate(3350.425 711.958)"/></g><g class="g"><path class="f" d="M-1616.532,0l353.322,705.275Zm-17,0,353.322,705.275Zm-17,0,353.322,705.275Zm-17,0,353.322,705.275Zm-17,0,353.322,705.275Zm-17,0,353.322,705.275Zm-17,0,353.322,705.275Zm-17,0,353.322,705.275Zm-17,0,353.322,705.275Zm-17,0,353.322,705.275Zm-17,0,353.322,705.275Zm-17,0,353.322,705.275Zm-17,0,353.322,705.275Zm-17,0,353.322,705.275Zm-17,0,353.322,705.275Zm-17,0,353.322,705.275Zm-17,0,353.322,705.275Zm-17,0,353.322,705.275Zm-17,0,353.322,705.275Zm-17,0,353.322,705.275Zm-17,0,353.322,705.275Zm-17,0,353.322,705.275Zm-17,0,353.322,705.275Zm-17,0,353.322,705.275Zm-17,0,353.322,705.275Zm-17,0,353.322,705.275Zm-17,0,353.322,705.275Zm-17,0,353.322,705.275Zm-17,0,353.322,705.275Zm-17,0,353.322,705.275Zm-17,0,353.322,705.275Zm-17,0,353.321,705.275Zm-17,0,353.321,705.275Zm-17,0,353.322,705.275Zm-17,0,353.322,705.275Zm-17,0,353.322,705.275Zm-17,0,353.322,705.275Zm-17,0,353.322,705.275Zm-17,0,353.322,705.275Zm-17,0,353.322,705.275Zm-17,0,353.321,705.275Zm-17,0,353.321,705.275Zm-17,0,353.322,705.275Zm-17,0,353.322,705.275Zm-17,0,353.322,705.275Zm-17,0,353.322,705.275Zm-17,0,353.322,705.275Zm-17,0,353.322,705.275Zm-17,0,353.322,705.275Zm-17,0,353.322,705.275Zm-17,0,353.322,705.275Zm-17,0,353.322,705.275Zm-17,0,353.322,705.275Zm-17,0,353.322,705.275Zm-17,0,353.322,705.275Zm-17,0,353.322,705.275Zm-17,0,353.322,705.275Zm-17,0,353.322,705.275Zm-17,0,353.322,705.275Zm-17,0,353.322,705.275Zm-17,0,353.322,705.275Zm-17,0,353.322,705.275Zm-17,0,353.322,705.275Zm-17,0,353.322,705.275Zm-17,0,353.322,705.275Zm-17,0,353.322,705.275Zm-17,0,353.322,705.275Zm-17,0,353.322,705.275Zm-17,0,353.322,705.275Zm-17,0,353.322,705.275Zm-17,0,353.322,705.275Zm-17,0,353.322,705.275Zm-17,0,353.322,705.275Zm-17,0,353.322,705.275Zm-17,0,353.322,705.275Zm-17,0,353.322,705.275Zm-17,0,353.322,705.275Zm-17,0,353.322,705.275Zm-17,0,353.322,705.275Zm-17,0,353.322,705.275Zm-17,0,353.322,705.275Zm-17,0,353.322,705.275Zm-17,0,353.322,705.275Zm-17,0,353.322,705.275Zm-17,0,353.322,705.275Zm-17,0,353.322,705.275Zm-17,0,353.322,705.275Zm-17,0,353.322,705.275Zm-17,0,353.322,705.275Zm-17,0,353.322,705.275Zm-17,0,353.322,705.275Zm-17,0,353.322,705.275Zm-17,0,353.322,705.275Zm-17,0,353.322,705.275Zm-17,0,353.321,705.275Zm-17,0,353.322,705.275Zm-17,0,353.322,705.275Zm-17,0,353.322,705.275Zm-17,0,353.322,705.275Zm-17,0,353.322,705.275Zm-17,0,353.322,705.275Zm-17,0,353.322,705.275Zm-17,0,353.322,705.275Zm-17,0,353.322,705.275Zm-17,0,353.322,705.275Zm-17,0,353.322,705.275Zm-17,0,353.322,705.275Zm-17,0,353.322,705.275Zm-17,0,353.322,705.275Zm-17,0,353.322,705.275Zm-17,0,353.322,705.275Zm-17,0,353.322,705.275Zm-17,0,353.322,705.275Zm-17,0,353.322,705.275Zm-17,0,353.322,705.275Zm-17,0,353.322,705.275Zm-17,0,353.322,705.275Zm-17,0,353.322,705.275Zm-17,0,353.322,705.275Zm-17,0,353.322,705.275Zm-17,0,353.322,705.275Zm-17,0,353.322,705.275Zm-17,0,353.322,705.275Zm-17,0,353.322,705.275Zm-17,0,353.322,705.275Zm-17,0,353.322,705.275Zm-17,0,353.322,705.275Zm-17,0,353.322,705.275Zm-17,0,353.322,705.275Zm-17,0,353.322,705.275Zm-17,0,353.322,705.275Zm-17,0,353.322,705.275Zm-17,0,353.322,705.275Zm-17,0,353.322,705.275Zm-17,0,353.322,705.275Zm-17,0,353.322,705.275Zm-17,0,353.322,705.275Zm-17,0,353.322,705.275Z" transform="translate(3215.297 696.82)"/></g></g></svg>